<svg width="15" height="15" viewBox="0 0 15 15" fill="none" xmlns="http://www.w3.org/2000/svg">
<path fill-rule="evenodd" clip-rule="evenodd" d="M14.5519 5.74055C14.46 5.45627 14.2078 5.25384 13.9104 5.22553L9.83199 4.85249L8.22637 1.08853C8.10856 0.812147 7.83715 0.632812 7.53677 0.632812C7.23628 0.632812 6.96487 0.812147 6.84707 1.08853L5.23775 4.85249L1.16497 5.2191C0.862793 5.24388 0.605259 5.44794 0.512067 5.73641C0.418876 6.02482 0.508263 6.34103 0.738725 6.53793L3.81717 9.2369L2.90987 13.2337C2.84319 13.5263 2.95742 13.8304 3.2003 14.0068C3.44306 14.1831 3.76761 14.1977 4.02526 14.0439L7.5408 11.9451L11.051 14.0448C11.3087 14.1983 11.6332 14.1836 11.8759 14.0073C12.1187 13.8311 12.2333 13.5272 12.1673 13.2346L11.26 9.23785L14.3383 6.53883C14.5644 6.34087 14.6505 6.02717 14.5573 5.7415L14.5519 5.74055Z" fill="url(#paint0_linear_1_144)"/>
<defs>
<linearGradient id="paint0_linear_1_144" x1="7.53504" y1="0.632812" x2="7.53504" y2="14.1505" gradientUnits="userSpaceOnUse">
<stop stop-color="#FFD056"/>
<stop offset="0.744792" stop-color="#F8C14F"/>
<stop offset="1" stop-color="#F7B73B"/>
</linearGradient>
</defs>
</svg>
